<svg xmlns="http://www.w3.org/2000/svg" width="21.97" height="21.97" viewBox="0 0 21.97 21.97"><defs><style>.a{fill:rgba(255,255,255,0);stroke:rgba(0,0,0,0);}.b{fill:#00afff;}.c{stroke:none;}.d{fill:none;}</style></defs><g class="a"><rect class="c" width="21.97" height="21.97"/><rect class="d" x="0.5" y="0.5" width="20.97" height="20.97"/></g><g transform="translate(19.97 10.985)"><path class="b" d="M0,0A9,9,0,0,0-8.985-8.985,9,9,0,0,0-17.97,0,9,9,0,0,0-8.985,8.985,9,9,0,0,0,0,0M-2.025,0a6.968,6.968,0,0,1-6.96,6.96A6.968,6.968,0,0,1-15.945,0a6.968,6.968,0,0,1,6.96-6.96A6.968,6.968,0,0,1-2.025,0M-5.9-1.2a3.426,3.426,0,0,0,.242-1.33,3.133,3.133,0,0,0-.414-1.6,2.9,2.9,0,0,0-1.155-1.1,3.416,3.416,0,0,0-1.625-.389,3.761,3.761,0,0,0-1.8.421A3.022,3.022,0,0,0-11.882-4a3.466,3.466,0,0,0-.431,1.729.973.973,0,0,0,.282.7,1.033,1.033,0,0,0,1.416,0,.985.985,0,0,0,.272-.7,1.52,1.52,0,0,1,.37-1.1,1.47,1.47,0,0,1,1.122-.384,1.179,1.179,0,0,1,.91.353,1.214,1.214,0,0,1,.339.873,1.879,1.879,0,0,1-.142.775A2.031,2.031,0,0,1-8.1-1.2a8.052,8.052,0,0,1-.7.645A3.27,3.27,0,0,0-9.667.581a3.046,3.046,0,0,0-.3,1.258.97.97,0,0,0,.282.7.968.968,0,0,0,.7.284.963.963,0,0,0,.713-.287.983.983,0,0,0,.272-.7,1.956,1.956,0,0,1,.122-.627A1.035,1.035,0,0,1-7.535.718a9.059,9.059,0,0,0,.989-.905A3.478,3.478,0,0,0-5.9-1.2m-4.3,5.61A1.212,1.212,0,0,0-8.985,5.623,1.212,1.212,0,0,0-7.773,4.411,1.212,1.212,0,0,0-8.985,3.2,1.212,1.212,0,0,0-10.2,4.411"/></g></svg>